<?xml version="1.0" encoding="UTF-8" standalone="no"?>
<!-- Created with Inkscape (http://www.inkscape.org/) -->
<svg style="background-color:white"
   xmlns:dc="http://purl.org/dc/elements/1.1/"
   xmlns:cc="http://creativecommons.org/ns#"
   xmlns:rdf="http://www.w3.org/1999/02/22-rdf-syntax-ns#"
   xmlns:svg="http://www.w3.org/2000/svg"
   xmlns="http://www.w3.org/2000/svg"
   xmlns:sodipodi="http://sodipodi.sourceforge.net/DTD/sodipodi-0.dtd"
   xmlns:inkscape="http://www.inkscape.org/namespaces/inkscape"
   width="666.81836"
   height="595.60828"
   id="svg2"
   sodipodi:version="0.32"
   inkscape:version="0.46"
   sodipodi:docname="Wifi_hidden_station_problem.svg"
   inkscape:output_extension="org.inkscape.output.svg.inkscape"
   version="1.0">
  <defs
     id="defs4">
    <inkscape:perspective
       sodipodi:type="inkscape:persp3d"
       inkscape:vp_x="0 : 526.18109 : 1"
       inkscape:vp_y="0 : 1000 : 0"
       inkscape:vp_z="744.09448 : 526.18109 : 1"
       inkscape:persp3d-origin="372.04724 : 350.78739 : 1"
       id="perspective10" />
    <inkscape:perspective
       id="perspective3331"
       inkscape:persp3d-origin="372.04724 : 350.78739 : 1"
       inkscape:vp_z="744.09448 : 526.18109 : 1"
       inkscape:vp_y="0 : 1000 : 0"
       inkscape:vp_x="0 : 526.18109 : 1"
       sodipodi:type="inkscape:persp3d" />
  </defs>
  <sodipodi:namedview
     id="base"
     pagecolor="#ffffff"
     bordercolor="#666666"
     borderopacity="1.0"
     gridtolerance="10000"
     guidetolerance="10"
     objecttolerance="10"
     inkscape:pageopacity="0.0"
     inkscape:pageshadow="2"
     inkscape:zoom="0.7"
     inkscape:cx="542.45882"
     inkscape:cy="317.32653"
     inkscape:document-units="px"
     inkscape:current-layer="layer1"
     showgrid="false"
     inkscape:window-width="1134"
     inkscape:window-height="799"
     inkscape:window-x="44"
     inkscape:window-y="58"
     showborder="false"
     inkscape:showpageshadow="false" />
  <metadata
     id="metadata7">
    <rdf:RDF>
      <cc:Work
         rdf:about="">
        <dc:format>image/svg+xml</dc:format>
        <dc:type
           rdf:resource="http://purl.org/dc/dcmitype/StillImage" />
      </cc:Work>
    </rdf:RDF>
  </metadata>
  <g
     inkscape:label="Layer 1"
     inkscape:groupmode="layer"
     id="layer1"
     transform="translate(-85.95532,-71.303249)">
    <path
       sodipodi:type="arc"
       style="fill:none;stroke:#006400;stroke-width:1.61592865;stroke-linejoin:bevel;stroke-miterlimit:4;stroke-dasharray:0.80796433, 0.80796433;stroke-dashoffset:0;stroke-opacity:1"
       id="path2385"
       sodipodi:cx="232.85715"
       sodipodi:cy="283.79074"
       sodipodi:rx="101.42857"
       sodipodi:ry="108.57143"
       d="M 334.28572,283.79074 A 101.42857,108.57143 0 1 1 131.42857,283.79074 A 101.42857,108.57143 0 1 1 334.28572,283.79074 z"
       transform="matrix(3.09785,0,0,2.71688,-304.593,-401.918)" />
    <g
       transform="matrix(9.10515e-2,0,0,8.76549e-2,560.437,486.734)"
       id="g3333"
       inkscape:label="Layer 1">
      <g
         transform="matrix(0.253565,0,0,0.253565,-1643.3,-1554.02)"
         id="g2386">
        <path
           sodipodi:type="arc"
           style="opacity:1;fill:#ffffff;fill-opacity:1;stroke:#000000;stroke-width:80;stroke-linecap:round;stroke-linejoin:round;stroke-miterlimit:4;stroke-dasharray:none;stroke-opacity:1"
           id="path3187"
           sodipodi:cx="-1048.5714"
           sodipodi:cy="3.7907546"
           sodipodi:rx="465.71429"
           sodipodi:ry="465.71429"
           d="M -582.85712,3.7907546 A 465.71429,465.71429 0 1 1 -1514.2857,3.7907546 A 465.71429,465.71429 0 1 1 -582.85712,3.7907546 z"
           transform="matrix(4.33333,0,0,4.33333,4533.71,193.078)" />
        <path
           sodipodi:type="arc"
           style="opacity:1;fill:#ffffff;fill-opacity:1;stroke:#000000;stroke-width:80;stroke-linecap:round;stroke-linejoin:round;stroke-miterlimit:4;stroke-dasharray:none;stroke-opacity:1"
           id="path3185"
           sodipodi:cx="-1048.5714"
           sodipodi:cy="3.7907546"
           sodipodi:rx="465.71429"
           sodipodi:ry="465.71429"
           d="M -582.85712,3.7907546 A 465.71429,465.71429 0 1 1 -1514.2857,3.7907546 A 465.71429,465.71429 0 1 1 -582.85712,3.7907546 z"
           transform="matrix(2.9548,0,0,2.9548,3088.22,198.304)" />
        <path
           sodipodi:type="arc"
           style="opacity:1;fill:#ffffff;fill-opacity:1;stroke:#000000;stroke-width:80;stroke-linecap:round;stroke-linejoin:round;stroke-miterlimit:4;stroke-dasharray:none;stroke-opacity:1"
           id="path3183"
           sodipodi:cx="-1048.5714"
           sodipodi:cy="3.7907546"
           sodipodi:rx="465.71429"
           sodipodi:ry="465.71429"
           d="M -582.85712,3.7907546 A 465.71429,465.71429 0 1 1 -1514.2857,3.7907546 A 465.71429,465.71429 0 1 1 -582.85712,3.7907546 z"
           transform="matrix(1.82486,0,0,1.82486,1903.39,202.587)" />
        <path
           sodipodi:type="arc"
           style="opacity:1;fill:#ffffff;fill-opacity:1;stroke:#000000;stroke-width:80;stroke-linecap:round;stroke-linejoin:round;stroke-miterlimit:4;stroke-dasharray:none;stroke-opacity:1"
           id="path3181"
           sodipodi:cx="-1048.5714"
           sodipodi:cy="3.7907546"
           sodipodi:rx="465.71429"
           sodipodi:ry="465.71429"
           d="M -582.85712,3.7907546 A 465.71429,465.71429 0 1 1 -1514.2857,3.7907546 A 465.71429,465.71429 0 1 1 -582.85712,3.7907546 z"
           transform="translate(1038.47,205.714)" />
        <path
           style="fill:#ffffff;fill-opacity:1;stroke:none;stroke-width:80;stroke-linecap:round;stroke-linejoin:round;stroke-miterlimit:4;stroke-opacity:1"
           d="M -7.2443685,220.93362 L 1504.1842,-2081.9236 L -1524.3873,-2081.9236 L -7.2443685,220.93362 z"
           id="path3192"
           sodipodi:nodetypes="cccc" />
        <path
           style="fill:#ffffff;fill-opacity:1;stroke:none;stroke-width:80;stroke-linecap:round;stroke-linejoin:round;stroke-miterlimit:4;stroke-opacity:1"
           d="M -7.2442174,223.79075 L 1504.1842,2526.6479 L -1524.3873,2526.6479 L -7.2442174,223.79075 z"
           id="rect3189"
           sodipodi:nodetypes="cccc" />
        <path
           style="fill:#000000;fill-opacity:1;stroke:none;stroke-width:3;stroke-linecap:round;stroke-linejoin:round;stroke-miterlimit:4;stroke-opacity:1"
           d="M 131.32707,222.36219 C 129.85733,280.3008 96.457805,328.45177 44.931875,352.67094 C 36.472685,356.25085 126.39529,2164.396 129.8183,2222.3445 C -5.6975961,2222.8383 -8.9361161,2222.5375 -151.03146,2223.1095 C -148.6186,2165.161 -56.675715,356.25085 -65.13491,352.67094 C -118.03418,328.65681 -149.22461,279.34006 -151.53008,222.36219 C -151.53008,144.29362 -88.17009,80.933613 -10.101515,80.933613 C 67.967055,80.933613 131.32707,144.29362 131.32707,222.36219 z"
           id="path3342"
           sodipodi:nodetypes="ccccccsc" />
      </g>
    </g>
    <g
       transform="matrix(9.10515e-2,0,0,8.76549e-2,818.964,495.374)"
       id="g3344"
       inkscape:label="Layer 1">
      <g
         transform="matrix(0.253565,0,0,0.253565,-1643.3,-1554.02)"
         id="g3346">
        <path
           sodipodi:type="arc"
           style="opacity:1;fill:#ffffff;fill-opacity:1;stroke:#000000;stroke-width:80;stroke-linecap:round;stroke-linejoin:round;stroke-miterlimit:4;stroke-dasharray:none;stroke-opacity:1"
           id="path3348"
           sodipodi:cx="-1048.5714"
           sodipodi:cy="3.7907546"
           sodipodi:rx="465.71429"
           sodipodi:ry="465.71429"
           d="M -582.85712,3.7907546 A 465.71429,465.71429 0 1 1 -1514.2857,3.7907546 A 465.71429,465.71429 0 1 1 -582.85712,3.7907546 z"
           transform="matrix(4.33333,0,0,4.33333,4533.71,193.078)" />
        <path
           sodipodi:type="arc"
           style="opacity:1;fill:#ffffff;fill-opacity:1;stroke:#000000;stroke-width:80;stroke-linecap:round;stroke-linejoin:round;stroke-miterlimit:4;stroke-dasharray:none;stroke-opacity:1"
           id="path3350"
           sodipodi:cx="-1048.5714"
           sodipodi:cy="3.7907546"
           sodipodi:rx="465.71429"
           sodipodi:ry="465.71429"
           d="M -582.85712,3.7907546 A 465.71429,465.71429 0 1 1 -1514.2857,3.7907546 A 465.71429,465.71429 0 1 1 -582.85712,3.7907546 z"
           transform="matrix(2.9548,0,0,2.9548,3088.22,198.304)" />
        <path
           sodipodi:type="arc"
           style="opacity:1;fill:#ffffff;fill-opacity:1;stroke:#000000;stroke-width:80;stroke-linecap:round;stroke-linejoin:round;stroke-miterlimit:4;stroke-dasharray:none;stroke-opacity:1"
           id="path3352"
           sodipodi:cx="-1048.5714"
           sodipodi:cy="3.7907546"
           sodipodi:rx="465.71429"
           sodipodi:ry="465.71429"
           d="M -582.85712,3.7907546 A 465.71429,465.71429 0 1 1 -1514.2857,3.7907546 A 465.71429,465.71429 0 1 1 -582.85712,3.7907546 z"
           transform="matrix(1.82486,0,0,1.82486,1903.39,202.587)" />
        <path
           sodipodi:type="arc"
           style="opacity:1;fill:#ffffff;fill-opacity:1;stroke:#000000;stroke-width:80;stroke-linecap:round;stroke-linejoin:round;stroke-miterlimit:4;stroke-dasharray:none;stroke-opacity:1"
           id="path3354"
           sodipodi:cx="-1048.5714"
           sodipodi:cy="3.7907546"
           sodipodi:rx="465.71429"
           sodipodi:ry="465.71429"
           d="M -582.85712,3.7907546 A 465.71429,465.71429 0 1 1 -1514.2857,3.7907546 A 465.71429,465.71429 0 1 1 -582.85712,3.7907546 z"
           transform="translate(1038.47,205.714)" />
        <path
           style="fill:#ffffff;fill-opacity:1;stroke:none;stroke-width:80;stroke-linecap:round;stroke-linejoin:round;stroke-miterlimit:4;stroke-opacity:1"
           d="M -7.2443685,220.93362 L 1504.1842,-2081.9236 L -1524.3873,-2081.9236 L -7.2443685,220.93362 z"
           id="path3356"
           sodipodi:nodetypes="cccc" />
        <path
           style="fill:#ffffff;fill-opacity:1;stroke:none;stroke-width:80;stroke-linecap:round;stroke-linejoin:round;stroke-miterlimit:4;stroke-opacity:1"
           d="M -7.2442174,223.79075 L 1504.1842,2526.6479 L -1524.3873,2526.6479 L -7.2442174,223.79075 z"
           id="path3358"
           sodipodi:nodetypes="cccc" />
        <path
           style="fill:#000000;fill-opacity:1;stroke:none;stroke-width:3;stroke-linecap:round;stroke-linejoin:round;stroke-miterlimit:4;stroke-opacity:1"
           d="M 131.32707,222.36219 C 129.85733,280.3008 96.457805,328.45177 44.931875,352.67094 C 36.472685,356.25085 126.39529,2164.396 129.8183,2222.3445 C -5.6975961,2222.8383 -8.9361161,2222.5375 -151.03146,2223.1095 C -148.6186,2165.161 -56.675715,356.25085 -65.13491,352.67094 C -118.03418,328.65681 -149.22461,279.34006 -151.53008,222.36219 C -151.53008,144.29362 -88.17009,80.933613 -10.101515,80.933613 C 67.967055,80.933613 131.32707,144.29362 131.32707,222.36219 z"
           id="path3360"
           sodipodi:nodetypes="ccccccsc" />
      </g>
    </g>
    <g
       transform="matrix(9.10515e-2,0,0,8.76549e-2,319.481,485.356)"
       id="g3362"
       inkscape:label="Layer 1">
      <g
         transform="matrix(0.253565,0,0,0.253565,-1643.3,-1554.02)"
         id="g3364">
        <path
           sodipodi:type="arc"
           style="opacity:1;fill:#ffffff;fill-opacity:1;stroke:#000000;stroke-width:80;stroke-linecap:round;stroke-linejoin:round;stroke-miterlimit:4;stroke-dasharray:none;stroke-opacity:1"
           id="path3366"
           sodipodi:cx="-1048.5714"
           sodipodi:cy="3.7907546"
           sodipodi:rx="465.71429"
           sodipodi:ry="465.71429"
           d="M -582.85712,3.7907546 A 465.71429,465.71429 0 1 1 -1514.2857,3.7907546 A 465.71429,465.71429 0 1 1 -582.85712,3.7907546 z"
           transform="matrix(4.33333,0,0,4.33333,4533.71,193.078)" />
        <path
           sodipodi:type="arc"
           style="opacity:1;fill:#ffffff;fill-opacity:1;stroke:#000000;stroke-width:80;stroke-linecap:round;stroke-linejoin:round;stroke-miterlimit:4;stroke-dasharray:none;stroke-opacity:1"
           id="path3368"
           sodipodi:cx="-1048.5714"
           sodipodi:cy="3.7907546"
           sodipodi:rx="465.71429"
           sodipodi:ry="465.71429"
           d="M -582.85712,3.7907546 A 465.71429,465.71429 0 1 1 -1514.2857,3.7907546 A 465.71429,465.71429 0 1 1 -582.85712,3.7907546 z"
           transform="matrix(2.9548,0,0,2.9548,3088.22,198.304)" />
        <path
           sodipodi:type="arc"
           style="opacity:1;fill:#ffffff;fill-opacity:1;stroke:#000000;stroke-width:80;stroke-linecap:round;stroke-linejoin:round;stroke-miterlimit:4;stroke-dasharray:none;stroke-opacity:1"
           id="path3370"
           sodipodi:cx="-1048.5714"
           sodipodi:cy="3.7907546"
           sodipodi:rx="465.71429"
           sodipodi:ry="465.71429"
           d="M -582.85712,3.7907546 A 465.71429,465.71429 0 1 1 -1514.2857,3.7907546 A 465.71429,465.71429 0 1 1 -582.85712,3.7907546 z"
           transform="matrix(1.82486,0,0,1.82486,1903.39,202.587)" />
        <path
           sodipodi:type="arc"
           style="opacity:1;fill:#ffffff;fill-opacity:1;stroke:#000000;stroke-width:80;stroke-linecap:round;stroke-linejoin:round;stroke-miterlimit:4;stroke-dasharray:none;stroke-opacity:1"
           id="path3372"
           sodipodi:cx="-1048.5714"
           sodipodi:cy="3.7907546"
           sodipodi:rx="465.71429"
           sodipodi:ry="465.71429"
           d="M -582.85712,3.7907546 A 465.71429,465.71429 0 1 1 -1514.2857,3.7907546 A 465.71429,465.71429 0 1 1 -582.85712,3.7907546 z"
           transform="translate(1038.47,205.714)" />
        <path
           style="fill:#ffffff;fill-opacity:1;stroke:none;stroke-width:80;stroke-linecap:round;stroke-linejoin:round;stroke-miterlimit:4;stroke-opacity:1"
           d="M -7.2443685,220.93362 L 1504.1842,-2081.9236 L -1524.3873,-2081.9236 L -7.2443685,220.93362 z"
           id="path3374"
           sodipodi:nodetypes="cccc" />
        <path
           style="fill:#ffffff;fill-opacity:1;stroke:none;stroke-width:80;stroke-linecap:round;stroke-linejoin:round;stroke-miterlimit:4;stroke-opacity:1"
           d="M -7.2442174,223.79075 L 1504.1842,2526.6479 L -1524.3873,2526.6479 L -7.2442174,223.79075 z"
           id="path3376"
           sodipodi:nodetypes="cccc" />
        <path
           style="fill:#000000;fill-opacity:1;stroke:none;stroke-width:3;stroke-linecap:round;stroke-linejoin:round;stroke-miterlimit:4;stroke-opacity:1"
           d="M 131.32707,222.36219 C 129.85733,280.3008 96.457805,328.45177 44.931875,352.67094 C 36.472685,356.25085 126.39529,2164.396 129.8183,2222.3445 C -5.6975961,2222.8383 -8.9361161,2222.5375 -151.03146,2223.1095 C -148.6186,2165.161 -56.675715,356.25085 -65.13491,352.67094 C -118.03418,328.65681 -149.22461,279.34006 -151.53008,222.36219 C -151.53008,144.29362 -88.17009,80.933613 -10.101515,80.933613 C 67.967055,80.933613 131.32707,144.29362 131.32707,222.36219 z"
           id="path3378"
           sodipodi:nodetypes="ccccccsc" />
      </g>
    </g>
    <text
       xml:space="preserve"
       style="font-size:71.46970367px;font-style:normal;font-variant:normal;font-weight:normal;font-stretch:normal;fill:#550000;fill-opacity:1;stroke:none;stroke-width:1px;stroke-linecap:butt;stroke-linejoin:miter;stroke-opacity:1;font-family:Sans"
       x="140.90401"
       y="294.51099"
       id="text3380"
       transform="scale(1.01919,0.98117)"><tspan
         sodipodi:role="line"
         id="tspan3382"
         x="140.90401"
         y="294.51099">A</tspan></text>
    <text
       xml:space="preserve"
       style="font-size:71.46970367px;font-style:normal;font-variant:normal;font-weight:normal;font-stretch:normal;fill:#008000;fill-opacity:1;stroke:none;stroke-width:1px;stroke-linecap:butt;stroke-linejoin:miter;stroke-opacity:1;font-family:Sans"
       x="379.03299"
       y="300.492"
       id="text3384"
       transform="scale(1.01919,0.98117)"><tspan
         sodipodi:role="line"
         id="tspan3386"
         x="379.03299"
         y="300.492">B</tspan></text>
    <text
       xml:space="preserve"
       style="font-size:71.46970367px;font-style:normal;font-variant:normal;font-weight:normal;font-stretch:normal;fill:#000080;fill-opacity:1;stroke:none;stroke-width:1px;stroke-linecap:butt;stroke-linejoin:miter;stroke-opacity:1;font-family:Sans"
       x="625.87598"
       y="304.72101"
       id="text3388"
       transform="scale(1.01919,0.98117)"><tspan
         sodipodi:role="line"
         id="tspan3390"
         x="625.87598"
         y="304.72101">C</tspan></text>
    <path
       transform="matrix(3.09785,0,0,2.71688,-52.250534,-401.918)"
       d="M 259.1088,388.66268 A 101.42857,108.57143 0 1 1 259.1088,178.9188"
       sodipodi:ry="108.57143"
       sodipodi:rx="101.42857"
       sodipodi:cy="283.79074"
       sodipodi:cx="232.85715"
       id="path2417"
       style="fill:none;stroke:#000080;stroke-width:1.61592865;stroke-linejoin:bevel;stroke-miterlimit:4;stroke-dasharray:0.80796433, 0.80796433;stroke-dashoffset:0;stroke-opacity:1"
       sodipodi:type="arc"
       sodipodi:start="1.3089969"
       sodipodi:end="4.9741884"
       sodipodi:open="true" />
    <path
       sodipodi:type="arc"
       style="fill:none;stroke:#550000;stroke-width:1.61592865;stroke-linejoin:bevel;stroke-miterlimit:4;stroke-dasharray:0.80796433, 0.80796433;stroke-dashoffset:0;stroke-opacity:1"
       id="path2419"
       sodipodi:cx="232.85715"
       sodipodi:cy="283.79074"
       sodipodi:rx="101.42857"
       sodipodi:ry="108.57143"
       d="M 206.6055,178.9188 A 101.42857,108.57143 0 1 1 206.6055,388.66269"
       transform="matrix(3.09785,0,0,2.71688,-551.73353,-401.918)"
       sodipodi:start="4.4505896"
       sodipodi:end="8.115781"
       sodipodi:open="true" />
  </g>
</svg>
